<?xml version="1.0" encoding="utf-8"?>
<!-- Generator: Adobe Illustrator 26.0.0, SVG Export Plug-In . SVG Version: 6.00 Build 0)  -->
<svg version="1.1" xmlns="http://www.w3.org/2000/svg" xmlns:xlink="http://www.w3.org/1999/xlink" x="0px" y="0px"
	 viewBox="0 0 1917 1080" style="enable-background:new 0 0 1917 1080;" xml:space="preserve">
<style type="text/css">
	.st0{display:none;}
	.st1{display:inline;}
	.st2{fill:#FFFFFF;}
	.st3{fill:none;stroke:#FFFFFF;stroke-width:5;}
	.st4{fill:none;stroke:#000000;stroke-width:5;}
	.st5{display:inline;fill:#565B68;}
	.st6{fill:#17181C;}
	.st7{fill:#9BA5C9;}
	.st8{fill:#FA4753;}
	.st9{display:inline;fill:#FFFFFF;}
	.st10{fill:none;}
	.st11{display:inline;fill:#1D1D1B;stroke:#FFFFFF;stroke-width:5;stroke-linecap:round;stroke-miterlimit:10;}
	.st12{display:inline;fill:#9BA5C9;}
	.st13{display:inline;fill:none;stroke:#FA4753;stroke-width:5;stroke-linecap:round;stroke-miterlimit:10;}
	.st14{display:inline;fill:#FA4753;}
	.st15{display:inline;fill:#FFFFFF;stroke:#FFFFFF;stroke-width:5;stroke-miterlimit:10;}
	.st16{display:inline;fill:none;stroke:#000000;stroke-width:5;stroke-linecap:round;stroke-miterlimit:10;}
	.st17{display:inline;fill:none;}
	.st18{display:none;fill:none;stroke:#17181C;stroke-width:20;stroke-miterlimit:10;}
	.st19{fill:none;stroke:#17181C;stroke-width:20;stroke-linecap:round;stroke-miterlimit:10;}
	.st20{display:inline;fill:#010101;}
	.st21{display:inline;fill:#080808;}
	.st22{display:inline;fill:#060606;}
	.st23{display:inline;fill:#070707;}
	.st24{display:inline;fill:#0B0B0B;}
	.st25{display:inline;fill:#0E0E0E;}
	.st26{display:inline;fill:#0A0A0A;}
	.st27{display:inline;fill:#120D13;}
	.st28{display:inline;fill:#0A080B;}
	.st29{display:inline;fill:#170D13;}
	.st30{display:inline;fill:#130D13;}
	.st31{display:inline;fill:#120D10;}
	.st32{display:inline;fill:#130C14;}
	.st33{display:inline;fill:#130B10;}
	.st34{display:inline;fill:#18111A;}
	.st35{display:inline;fill:#120E17;}
	.st36{display:inline;fill:#130E17;}
	.st37{display:inline;fill:#171015;}
	.st38{display:inline;fill:#171317;}
	.st39{display:inline;fill:#111111;}
	.st40{display:inline;fill:#100F15;}
	.st41{display:inline;fill:#242424;}
	.st42{display:inline;fill:#FCFCFC;}
	.st43{display:inline;fill:#F9F9F9;}
	.st44{display:inline;fill:#E1E3D9;}
	.st45{display:inline;fill:#F4F7F5;}
	.st46{display:inline;fill:#F1F6F2;}
	.st47{display:inline;fill:#F0F3F2;}
	.st48{display:inline;fill:#F4F8F4;}
	.st49{display:inline;fill:#F1F5F3;}
	.st50{display:inline;fill:#F7B385;}
	.st51{display:inline;fill:#C8C3F8;}
	.st52{display:inline;fill:#C4E5C9;}
	.st53{display:inline;fill:#F8CCE0;}
	.st54{display:inline;fill:#D2E4F7;}
	.st55{display:inline;fill:#EFF57C;}
	.st56{display:inline;fill:#8AF0CE;}
	.st57{display:inline;fill:#17181C;}
	.st58{fill:#1975BA;}
	.st59{fill:#E5E5E5;}
	.st60{fill:#B2B2B2;}
	.st61{fill:#EFEFEF;}
	.st62{fill:#F1E2D4;}
	.st63{fill:#E3030B;}
	.st64{fill:#FE0C1A;}
	.st65{fill:#AE0103;}
	.st66{fill:#F4050F;}
	.st67{fill:#FFD240;}
	.st68{fill:#F7F7F7;}
	.st69{fill:#FCFCFC;}
	.st70{fill:#255B37;}
	.st71{fill:#07ACEC;}
	.st72{fill:#FBB017;}
	.st73{fill:none;stroke:#000000;stroke-width:3;stroke-miterlimit:10;}
	.st74{fill:none;stroke:#000000;stroke-width:4;stroke-miterlimit:10;}
	.st75{fill:none;stroke:#FBB017;stroke-width:5;stroke-miterlimit:10;}
	.st76{fill:#414143;}
	.st77{fill:none;stroke:#FFFFFF;stroke-width:3;stroke-miterlimit:10;}
	.st78{display:inline;fill:none;stroke:#666666;stroke-width:3;stroke-miterlimit:10;}
	.st79{fill:#666666;}
	.st80{fill:#662482;}
	.st81{fill:#FAE922;}
	.st82{fill:#FFFFFF;stroke:#1D1D1B;stroke-miterlimit:10;}
	.st83{fill:none;stroke:#666666;stroke-width:3;stroke-miterlimit:10;}
	.st84{fill:#FF3E3E;}
	.st85{font-family:'ArialMT';}
	.st86{font-size:148.8572px;}
	.st87{letter-spacing:-7.94;}
	.st88{font-family:'GeometosSoft-Regular';}
	.st89{font-size:160px;}
	.st90{letter-spacing:-7;}
	.st91{letter-spacing:-4;}
	.st92{letter-spacing:3;}
	.st93{letter-spacing:2;}
	.st94{letter-spacing:-3;}
</style>
<g id="Líneas_guía" class="st0">
</g>
<g id="Logo_finalizado_blanco" class="st0">
	<g id="Fondo" class="st1">
	</g>
</g>
<g id="Logo_finalizado_negro" class="st0">
</g>
<g id="Propuesta_4" class="st0">
</g>
<g id="Propuesta_3" class="st0">
</g>
<g id="Propuesta_2" class="st0">
</g>
<g id="Propuesta_1" class="st0">
	<g id="Logo" class="st1">
	</g>
</g>
<g id="Logo_3" class="st0">
	<g id="Fresa" class="st1">
	</g>
</g>
<g id="Línea_gráfica_C_x26_S_copia" class="st0">
</g>
<g id="Geo_Sans" class="st0">
	<g id="Trazos_copia_4" class="st1">
	</g>
	<g id="Pesos_de_letra_copia_2" class="st1">
	</g>
</g>
<g id="kollektif_00000036948847405345575880000002186839528666671005_" class="st0">
	<g id="Trazos_copia_3" class="st1">
	</g>
	<g id="Pesos_de_letra_copia" class="st1">
	</g>
</g>
<g id="Gilroy" class="st0">
	<g id="Trazos" class="st1">
	</g>
	<g id="Pesos_de_letra" class="st1">
	</g>
</g>
<g id="Paleta_de_colores" class="st0">
</g>
<g id="Colores" class="st0">
</g>
<g id="PAPÚ_x27_S_STORE">
	<g id="Isotipo3">
	</g>
	<g id="Isotipo2">
	</g>
	<g id="Isotipo1">
	</g>
	<g id="Logotipo_00000008149281346760968470000005711046220533277074_">
	</g>
	<g id="Imagotipo_00000054231693249001662930000002885042960801230992_">
	</g>
</g>
<g id="TerraValor">
</g>
<g id="Planfinity">
	<g id="Isotipo_00000114035782580161631190000007452208274064412061_">
	</g>
	<g id="Logotipo_00000167362310947526393740000018442782925603511937_">
		<g id="Anotaciones_00000093171995712916195960000010519744951131357334_" class="st0">
		</g>
	</g>
	<g id="Imagotipo_00000174579059702518774350000016930638984013751960_">
		<g>
			<path d="M1292.93,222.83c-28.35-14.73-58.8-21-88.69-19c-33.86,2.27-58.27,15.93-85.26,30.61
				c-18.93,10.29-33.65,20.78-43.81,28.68c14.1-0.91,28.2-1.83,42.3-2.74c-6.07,12.6-12.14,25.21-18.21,37.81
				c9.31-8.67,23.46-20.39,42.6-31.18c18.96-10.69,37.9-21.53,65.05-23.35c22.81-1.53,46.04,3.25,67.67,14.49
				c43.24,22.47,69.05,64.97,69.05,113.7c0,48.72-25.81,91.22-69.05,113.69c-43.24,22.46-92.85,19.15-132.72-8.86L992.65,371.85
				c-11.54-8.11-23.07-16.22-34.61-24.33L797.1,234.44c-52.26-36.71-117.29-41.05-173.96-11.61c-56.67,29.45-90.5,85.15-90.5,149.01
				v0.01c0,63.86,33.83,119.56,90.5,149.01c24.92,12.94,51.46,19.36,77.82,19.36c33.58,0,66.86-10.41,96.14-30.98l27.04-19
				l19.26-13.53l1.86-1.31c3.13-2.28,6.26-4.56,9.39-6.84c4.11-12.16,8.21-24.32,12.32-36.48c-13.62,2.65-27.24,5.29-40.85,7.94
				c-1.68,1.24-3.36,2.48-5.04,3.73l-2.08,1.46l-16.75,11.77l-28.03,19.7c-39.87,28.01-89.49,31.32-132.73,8.86
				c-43.24-22.47-69.05-64.97-69.05-113.7c0-48.72,25.81-91.22,69.05-113.69c19.02-9.88,39.26-14.77,59.38-14.77
				c25.61,0,51.01,7.94,73.35,23.63l149.2,104.83c11.54,8.11,23.08,16.21,34.62,24.32l160.94,113.08
				c52.25,36.72,117.28,41.06,173.95,11.62c56.67-29.45,90.5-85.15,90.5-149.02C1383.43,307.98,1349.6,252.28,1292.93,222.83z"/>
			<line x1="843.4" y1="476.71" x2="845.26" y2="475.4"/>
			<path d="M775.95,159.2c49.89,23.31,68.68,40.67,168.02,141.46c-1.17-0.86-135.28-136.67-246.53-136.67
				c-0.86,0-129.22-12.84-193.4,144.62c-0.21,0,0.32-8.66,3.57-22.24C535.78,168.71,666.33,108,775.95,159.2z"/>
			<path d="M1141.05,585.68c-49.89-23.31-68.68-40.67-168.02-141.46c1.17,0.86,135.28,136.67,246.53,136.67
				c0.86,0,129.22,12.84,193.4-144.62c0.21,0-0.32,8.66-3.57,22.24C1381.22,576.17,1250.67,636.88,1141.05,585.68z"/>
		</g>
		<g id="Logotipo_00000008835265669002216330000002720125174554602672_">
			<g>
				<path d="M408.13,673.48c6.56,3.79,11.43,8.95,14.6,15.49c3.17,6.54,4.76,13.94,4.76,22.2c0,8.03-1.64,15.23-4.92,21.6
					c-3.28,6.37-8.17,11.39-14.68,15.06c-6.51,3.67-14.42,5.51-23.73,5.51h-31.75v36.15c0,2.87-1.32,4.3-3.97,4.3h-6.98
					c-2.65,0-3.97-1.43-3.97-4.3V672.11c0-2.87,1.32-4.3,3.97-4.3h42.38C393.48,667.8,401.57,669.7,408.13,673.48z M400.12,735.8
					c4.18-2.64,7.3-6.14,9.36-10.5c2.06-4.36,3.1-9.06,3.1-14.11c0-5.16-1.09-10.01-3.25-14.55c-2.17-4.53-5.4-8.23-9.68-11.1
					c-4.29-2.87-9.5-4.3-15.64-4.3h-31.59v58.52h32.54C390.89,739.75,395.94,738.44,400.12,735.8z"/>
				<path d="M558.04,780.55c2.97,0,4.46,1.44,4.46,4.3v4.65c0,2.87-1.49,4.3-4.46,4.3h-81.07c-2.98,0-4.46-1.43-4.46-4.3V672.11
					c0-2.87,1.49-4.3,4.46-4.3h7.86c2.97,0,4.46,1.44,4.46,4.3v108.44H558.04z"/>
				<path d="M610.61,793.8h-8.48c-1.09,0-1.93-0.26-2.53-0.77c-0.6-0.52-0.9-1.23-0.9-2.15c0-0.69,0.16-1.43,0.49-2.24L654,670.39
					c0.43-1.03,0.9-1.72,1.39-2.07c0.49-0.34,1.06-0.52,1.71-0.52c0.65,0,1.22,0.17,1.71,0.52c0.49,0.34,0.95,1.03,1.39,2.07
					l54.81,118.25c0.33,0.8,0.49,1.55,0.49,2.24c0,0.92-0.3,1.64-0.9,2.15c-0.6,0.52-1.44,0.77-2.53,0.77h-8.65
					c-2.18,0-3.81-1.09-4.89-3.27l-9.13-20.66h-64.76l-9.13,20.66C614.53,792.71,612.9,793.8,610.61,793.8z M631.17,756.28h51.87
					l-25.77-58.35L631.17,756.28z"/>
				<path d="M868.5,672.11v119.46c0,1.49-0.64,2.24-1.92,2.24c-0.58,0-1.11-0.14-1.57-0.43c-0.47-0.29-1.11-0.89-1.92-1.81
					l-86.33-88.3v86.24c0,2.87-1.46,4.3-4.37,4.3h-7.51c-2.91,0-4.37-1.43-4.37-4.3V670.21c0-1.61,0.7-2.41,2.1-2.41
					c0.7,0,1.28,0.17,1.75,0.52c0.46,0.34,1.05,0.92,1.75,1.72l86.16,87.61v-85.55c0-2.87,1.46-4.3,4.37-4.3h7.51
					C867.04,667.8,868.5,669.24,868.5,672.11z"/>
				<path d="M1219.5,672.11v119.46c0,1.49-0.64,2.24-1.92,2.24c-0.58,0-1.11-0.14-1.57-0.43c-0.47-0.29-1.11-0.89-1.92-1.81
					l-86.33-88.3v86.24c0,2.87-1.46,4.3-4.37,4.3h-7.51c-2.91,0-4.37-1.43-4.37-4.3V670.21c0-1.61,0.7-2.41,2.1-2.41
					c0.7,0,1.28,0.17,1.75,0.52c0.46,0.34,1.05,0.92,1.75,1.72l86.16,87.61v-85.55c0-2.87,1.46-4.3,4.37-4.3h7.51
					C1218.04,667.8,1219.5,669.24,1219.5,672.11z"/>
				<path d="M999.14,681.23H929.9v44.58h60.7c2.91,0,4.36,1.44,4.36,4.3v5.34c0,2.87-1.46,4.3-4.36,4.3h-60.7l-0.17,49.75
					c0,2.87-1.46,4.3-4.36,4.3h-7.5c-2.91,0-4.36-1.43-4.36-4.3V672.11c0-2.87,1.45-4.3,4.36-4.3h81.28c2.91,0,4.36,1.44,4.36,4.3
					v4.82C1003.5,679.8,1002.04,681.23,999.14,681.23z"/>
				<path d="M1066.5,672.11V789.5c0,2.87-1.6,4.3-4.79,4.3h-8.43c-3.19,0-4.79-1.43-4.79-4.3V672.11c0-2.87,1.59-4.3,4.79-4.3h8.43
					C1064.9,667.8,1066.5,669.24,1066.5,672.11z"/>
				<path d="M1300.5,672.11V789.5c0,2.87-1.6,4.3-4.79,4.3h-8.43c-3.19,0-4.79-1.43-4.79-4.3V672.11c0-2.87,1.59-4.3,4.79-4.3h8.43
					C1298.9,667.8,1300.5,669.24,1300.5,672.11z"/>
				<path d="M1435.5,672.11v4.82c0,2.87-1.4,4.3-4.18,4.3h-32.96V789.5c0,2.87-1.4,4.3-4.18,4.3h-7.19c-2.79,0-4.18-1.43-4.18-4.3
					V681.23h-33.12c-2.79,0-4.18-1.43-4.18-4.3v-4.82c0-2.87,1.39-4.3,4.18-4.3h81.64C1434.1,667.8,1435.5,669.24,1435.5,672.11z"/>
				<path d="M1566.13,667.8h9.5c2.58,0,3.87,0.92,3.87,2.75c0,0.69-0.29,1.49-0.88,2.41l-45.03,73.16v43.38c0,2.87-1.47,4.3-4.4,4.3
					h-7.74c-2.93,0-4.4-1.43-4.4-4.3v-43.72l-44.68-72.81c-0.59-0.92-0.88-1.72-0.88-2.41c0-1.83,1.29-2.75,3.87-2.75h9.32
					c2.34,0,4.1,0.98,5.28,2.93l35.35,59.21l35.53-59.21C1562.03,668.78,1563.78,667.8,1566.13,667.8z"/>
			</g>
			<g>
				<path d="M461.07,974.58c-17.39,0-31.83-6.1-43.32-18.29c-11.5-12.19-17.25-27.09-17.25-44.71c0-17.61,5.75-32.52,17.25-44.71
					c11.5-12.19,25.94-18.29,43.32-18.29c10.43,0,20.05,2.54,28.85,7.61c8.8,5.07,15.67,11.93,20.61,20.56l-2.86,1.75
					c-4.6-8.17-11.05-14.67-19.35-19.51c-8.3-4.84-17.39-7.26-27.26-7.26c-16.49,0-30.15,5.78-40.97,17.33
					c-10.83,11.55-16.24,25.73-16.24,42.52c0,16.8,5.41,30.97,16.24,42.53c10.82,11.55,24.48,17.32,40.97,17.32
					c10.21,0,19.54-2.54,28.01-7.61c8.47-5.08,14.89-11.87,19.26-20.39l3.03,1.75c-4.82,8.98-11.72,16.13-20.69,21.44
					C481.71,971.92,471.84,974.58,461.07,974.58z"/>
				<path d="M638.89,956.11c-11.83,12.31-26.11,18.46-42.82,18.46c-16.71,0-30.99-6.15-42.82-18.46
					c-11.84-12.31-17.75-27.15-17.75-44.54c0-17.38,5.92-32.23,17.75-44.54c11.83-12.31,26.1-18.46,42.82-18.46
					c16.71,0,30.98,6.15,42.82,18.46c11.83,12.31,17.75,27.16,17.75,44.54C656.64,928.96,650.72,943.81,638.89,956.11z
					 M555.61,953.93c11.16,11.67,24.65,17.5,40.46,17.5s29.3-5.83,40.46-17.5c11.16-11.66,16.74-25.78,16.74-42.35
					c0-16.56-5.58-30.68-16.74-42.35c-11.16-11.66-24.65-17.5-40.46-17.5s-29.3,5.84-40.46,17.5
					c-11.16,11.67-16.74,25.79-16.74,42.35C538.86,928.14,544.44,942.26,555.61,953.93z"/>
				<path d="M769.26,848.58h3.36v126h-3.36L691.86,854.7v119.88h-3.36v-126h3.36l77.39,119.88V848.58z"/>
				<path d="M847.06,974.58c-10.88,0-19.97-2.54-27.26-7.61c-7.29-5.08-12.06-11.52-14.3-19.34l2.86-1.75
					c2.02,7.59,6.42,13.74,13.21,18.46c6.78,4.73,15.28,7.09,25.49,7.09c10.88,0,19.15-2.77,24.82-8.31
					c5.66-5.54,8.5-12.51,8.5-20.91c0-7.46-2.89-13.44-8.66-17.94c-5.78-4.49-14.16-8.43-25.15-11.81
					c-5.95-1.75-10.83-3.44-14.64-5.07c-3.81-1.63-7.52-3.68-11.1-6.13c-3.59-2.45-6.25-5.43-7.99-8.92
					c-1.74-3.5-2.61-7.53-2.61-12.08c0-8.86,3.22-16.36,9.67-22.49c6.45-6.12,14.78-9.19,24.98-9.19c8.97,0,16.46,2.28,22.46,6.82
					c6,4.55,10.35,10.5,13.04,17.85l-2.69,1.57c-5.72-15.4-16.66-23.1-32.81-23.1c-9.76,0-17.41,2.86-22.97,8.58
					c-5.55,5.72-8.33,12.37-8.33,19.95c0,3.39,0.67,6.45,2.02,9.19c1.35,2.74,2.86,4.99,4.54,6.74c1.68,1.75,4.32,3.53,7.91,5.34
					c3.59,1.81,6.59,3.18,9,4.11c2.41,0.93,6.03,2.22,10.85,3.85c11.78,3.97,20.69,8.34,26.75,13.12c6.06,4.79,9.09,11.32,9.09,19.6
					c0,9.69-3.28,17.5-9.84,23.45C867.33,971.6,858.38,974.58,847.06,974.58z"/>
				<path d="M986.27,962.95c-7.57,7.75-17.81,11.62-30.71,11.62c-12.9,0-23.13-3.87-30.71-11.62c-7.57-7.75-11.36-17.77-11.36-30.08
					v-84.3h3.36v84.3c0,11.12,3.34,20.32,10.01,27.6c6.67,7.28,16.24,10.91,28.69,10.91c12.45,0,22.01-3.64,28.69-10.91
					c6.67-7.28,10.01-16.47,10.01-27.6v-84.3h3.36v84.3C997.62,945.18,993.84,955.21,986.27,962.95z"/>
				<path d="M1042.86,971.34h58.89v3.24h-62.25v-126h3.36V971.34z"/>
				<path d="M1192.26,847.8v3.26h-38.7v123.51h-3.36V851.06h-38.7v-3.26H1192.26z"/>
				<path d="M1219.5,848.58h3.36v126h-3.36V848.58z"/>
				<path d="M1342.14,848.58h3.36v126h-3.36l-77.39-119.88v119.88h-3.36v-126h3.36l77.39,119.88V848.58z"/>
				<path d="M1498.5,918.05v1.75c0,15.4-5.16,28.38-15.48,38.94c-10.32,10.56-23.67,15.84-40.04,15.84
					c-18.17,0-33.09-6.07-44.75-18.2c-11.67-12.13-17.5-27.06-17.5-44.8c0-17.61,5.75-32.52,17.25-44.71
					c11.5-12.19,25.94-18.29,43.32-18.29c10.54,0,20.27,2.63,29.19,7.88c8.92,5.25,15.79,12.25,20.61,21l-2.86,1.75
					c-4.49-8.4-10.94-15.08-19.35-20.04c-8.41-4.96-17.61-7.44-27.59-7.44c-16.49,0-30.15,5.78-40.97,17.33
					c-10.83,11.55-16.24,25.73-16.24,42.52c0,16.8,5.52,30.97,16.57,42.53c11.05,11.55,25.15,17.32,42.31,17.32
					c15.25,0,27.7-4.81,37.35-14.44c9.65-9.62,14.64-21.55,14.97-35.79h-55.86v-3.15H1498.5z"/>
			</g>
		</g>
	</g>
</g>
<g id="SPECT">
	<g id="Paleta_de_colores_00000000927072412350156920000015527086338446549390_">
	</g>
	<g id="Isotipo_00000131360011782984930350000015245230134454808511_">
	</g>
	<g id="Logotipo_00000147213459897902378120000007808874357290990769_">
		<g id="Anotaciones_copia">
		</g>
	</g>
	<g id="Imagotipo_00000059282080053037687910000007524513146883107228_">
	</g>
</g>
<g id="CyS">
	<g id="Isotipo">
		<g id="Anotaciones_00000057845074695795868430000005765591065450093220_" class="st0">
		</g>
	</g>
	<g id="Logotipo">
		<g id="Anotaciones" class="st0">
		</g>
	</g>
	<g id="Imagotipo">
	</g>
</g>
<g id="Notas">
	<text transform="matrix(1.0077 0 0 1 0 1207.7422)"><tspan x="0" y="0" class="st85 st86">Competencia</tspan><tspan x="0" y="178.63" class="st85 st86">ww</tspan><tspan x="215" y="178.63" class="st85 st86 st87">w</tspan><tspan x="314.29" y="178.63" class="st85 st86">.phdmedia.com/costa-rica</tspan></text>
	<text transform="matrix(1 0 0 1 0 -9.0002)"><tspan x="0" y="0" class="st2 st88 st89">IM</tspan><tspan x="192" y="0" class="st2 st88 st89 st90">A</tspan><tspan x="306.56" y="0" class="st2 st88 st89">G</tspan><tspan x="437.12" y="0" class="st2 st88 st89 st90">O</tspan><tspan x="562.4" y="0" class="st2 st88 st89 st91">T</tspan><tspan x="654.72" y="0" class="st2 st88 st89">I</tspan><tspan x="704.16" y="0" class="st2 st88 st89 st92">P</tspan><tspan x="814.71" y="0" class="st2 st88 st89">O P</tspan><tspan x="1108.79" y="0" class="st2 st88 st89 st93">L</tspan><tspan x="1208.31" y="0" class="st2 st88 st89">AN</tspan><tspan x="1455.67" y="0" class="st2 st88 st89 st91">F</tspan><tspan x="1553.91" y="0" class="st2 st88 st89">IN</tspan><tspan x="1728.79" y="0" class="st2 st88 st89 st91">I</tspan><tspan x="1773.26" y="0" class="st2 st88 st89 st94">T</tspan><tspan x="1866.71" y="0" class="st2 st88 st89">Y</tspan></text>
</g>
</svg>
