<?xml version="1.0" encoding="utf-8"?>
<!-- Generator: Adobe Illustrator 26.0.0, SVG Export Plug-In . SVG Version: 6.00 Build 0)  -->
<svg version="1.1" xmlns="http://www.w3.org/2000/svg" xmlns:xlink="http://www.w3.org/1999/xlink" x="0px" y="0px"
	 viewBox="0 0 1920 1080" style="enable-background:new 0 0 1920 1080;" xml:space="preserve">
<style type="text/css">
	.st0{fill:none;}
	.st1{fill:#FFFFFF;}
	.st2{fill:#662482;}
	.st3{fill:#FAE922;}
	.st4{display:none;}
	.st5{fill:#17181C;}
	.st6{fill:#FFFFFF;stroke:#1D1D1B;stroke-miterlimit:10;}
</style>
<g id="Brinding">
	<g id="Thank_for_buy_sticker">
	</g>
	<g id="Black_logo_Sticker">
	</g>
</g>
<g id="Global_labels">
</g>
<g id="Página_3_Tipografía">
	<g id="Lineas_guia_00000070813565277261014980000001370141877395364481_" class="st4">
	</g>
</g>
<g id="Página_2_Paleta_de_colores">
	<g id="Líneas_guía_00000020367481794738409910000018365220559042432186_" class="st4">
	</g>
</g>
<g id="Pagina_1.3_Imagologo">
	<g id="Para_exportar_00000094613602036181183140000006038299476457847219_">
	</g>
	<g id="Imagologo">
	</g>
</g>
<g id="Página_1.2_Isotipo">
	<g id="Para_exportar_00000174595634877913777420000006735843408120080549_">
	</g>
</g>
<g id="Página_1.1_Logotipo">
	<g id="Lineas_guía" class="st4">
	</g>
	<g id="Para_exportar">
	</g>
	<g id="LOGOTIPO">
	</g>
</g>
<g id="Labels">
</g>
<g id="Página_1">
	<g id="Lineas_guia" class="st4">
	</g>
	<g>
		<g id="Isotipo_00000089575758579200076380000003697615116581425579_">
			
				<ellipse id="Circulo_00000060721549799654677620000010389426319169852289_" class="st2" cx="960" cy="340.73" rx="297.5" ry="282.48"/>
			<path id="Rayo_00000064336520143988324950000010397866633317272727_" class="st3" d="M899.6,87.89
				c9.83-5.22,19.07-6.79,24.78-7.3c79.46-0.65,158.92-1.3,238.38-1.95c2.54,0.59,5.99,1.67,9.7,3.71c4.03,2.22,6.89,4.77,8.73,6.68
				c1.94,2.23,6.19,7.74,7.35,15.96c1.04,7.31-0.9,13.09-2.01,15.78c-45.93,41.44-91.87,82.89-137.8,124.33
				c45.43,0.48,90.87,0.96,136.3,1.44c2.05,0.04,6.03,0.38,10.18,2.65c1.59,0.87,4.71,2.57,6.74,5.99
				c3.39,5.72,1.17,11.89,0.71,13.08c-134.92,118.03-269.84,236.06-404.76,354.09c-3.29,1.17-7.86,2.42-13.42,2.79
				c-8.08,0.54-14.62-1-18.62-2.28c-2.33-1.28-7.54-4.53-11.18-10.84c-3.3-5.71-3.64-11.05-3.63-13.6
				c18.77-35.52,37.48-71.93,56.05-109.25c13.87-27.87,27.29-55.48,40.27-82.79c-36.67,0.02-73.34,0.04-110,0.05
				c-1.78-0.44-12.03-3.14-17.93-13.11c-5.84-9.88-3.04-19.5-2.51-21.19c56.17-91.31,112.33-182.62,168.5-273.93
				C888.64,95.08,893.3,91.24,899.6,87.89z"/>
		</g>
		<g>
			<g>
				<path d="M580.06,934.77c5.24,0,9.1,1.56,11.59,4.66c2.49,3.11,3.73,7.28,3.73,12.52v1.87h-7.27v-2.26
					c0-3.14-0.62-5.56-1.87-7.26c-1.24-1.7-3.24-2.55-5.99-2.55c-2.75,0-4.75,0.85-5.99,2.55c-1.25,1.7-1.87,4.09-1.87,7.17
					c0,2.55,0.57,4.78,1.72,6.68c1.14,1.9,2.57,3.65,4.27,5.25c1.7,1.6,3.55,3.17,5.55,4.71c2,1.54,3.85,3.22,5.55,5.06
					c1.7,1.83,3.13,3.91,4.27,6.23c1.15,2.32,1.72,5.09,1.72,8.29c0,5.24-1.26,9.41-3.78,12.52c-2.52,3.11-6.44,4.66-11.74,4.66
					c-5.31,0-9.2-1.55-11.69-4.66c-2.49-3.11-3.73-7.28-3.73-12.52v-3.93h7.17v4.32c0,3.14,0.65,5.56,1.96,7.26
					c1.31,1.7,3.34,2.55,6.09,2.55c2.75,0,4.78-0.85,6.09-2.55c1.31-1.7,1.96-4.12,1.96-7.26c0-2.55-0.57-4.76-1.72-6.63
					c-1.15-1.87-2.57-3.6-4.27-5.2c-1.7-1.6-3.54-3.17-5.5-4.71c-1.96-1.54-3.8-3.22-5.5-5.06c-1.7-1.83-3.13-3.91-4.27-6.23
					c-1.15-2.32-1.72-5.09-1.72-8.29c0-5.3,1.24-9.49,3.73-12.57C571.05,936.31,574.89,934.77,580.06,934.77z"/>
				<path d="M601.58,952.05c0-5.3,1.29-9.51,3.88-12.62c2.59-3.11,6.53-4.66,11.84-4.66c5.3,0,9.27,1.56,11.89,4.66
					c2.62,3.11,3.93,7.31,3.93,12.62v35.54c0,5.24-1.31,9.42-3.93,12.57c-2.62,3.14-6.58,4.71-11.89,4.71
					c-5.31,0-9.25-1.57-11.84-4.71c-2.59-3.14-3.88-7.33-3.88-12.57V952.05z M609.14,987.98c0,3.14,0.67,5.58,2.01,7.31
					c1.34,1.73,3.39,2.6,6.14,2.6c2.82,0,4.88-0.87,6.19-2.6c1.31-1.73,1.96-4.17,1.96-7.31v-36.32c0-3.14-0.66-5.58-1.96-7.31
					c-1.31-1.73-3.37-2.6-6.19-2.6c-2.75,0-4.8,0.87-6.14,2.6c-1.34,1.74-2.01,4.17-2.01,7.31V987.98z"/>
				<path d="M640.38,1004.18v-68.72h7.66v61.75h19.65v6.97H640.38z"/>
				<path d="M680.76,987.98c0,3.14,0.64,5.58,1.92,7.31c1.28,1.73,3.32,2.6,6.14,2.6c2.75,0,4.76-0.87,6.04-2.6
					c1.28-1.73,1.92-4.17,1.92-7.31v-52.52h7.17v52.13c0,5.24-1.25,9.44-3.73,12.62c-2.49,3.17-6.39,4.76-11.69,4.76
					c-5.24,0-9.1-1.59-11.59-4.76c-2.49-3.17-3.73-7.38-3.73-12.62v-52.13h7.57V987.98z"/>
				<path d="M726.35,934.77c5.3,0,9.22,1.57,11.74,4.71c2.52,3.14,3.78,7.33,3.78,12.57v6.18h-7.27v-6.58
					c0-3.14-0.64-5.58-1.92-7.31c-1.28-1.73-3.33-2.6-6.14-2.6c-2.75,0-4.78,0.87-6.09,2.6c-1.31,1.74-1.96,4.17-1.96,7.31v36.32
					c0,3.14,0.65,5.58,1.96,7.31c1.31,1.73,3.34,2.6,6.09,2.6c2.82,0,4.86-0.87,6.14-2.6c1.28-1.73,1.92-4.17,1.92-7.31v-8.93h7.27
					v8.54c0,5.24-1.26,9.42-3.78,12.57c-2.52,3.14-6.44,4.71-11.74,4.71c-5.24,0-9.12-1.57-11.64-4.71
					c-2.52-3.14-3.78-7.33-3.78-12.57v-35.54c0-2.62,0.31-4.99,0.93-7.12c0.62-2.12,1.57-3.94,2.85-5.45
					c1.28-1.5,2.88-2.67,4.81-3.48C721.45,935.18,723.73,934.77,726.35,934.77z"/>
				<path d="M756.51,935.46v68.72h-7.66v-68.72H756.51z"/>
				<path d="M763.78,952.05c0-5.3,1.29-9.51,3.88-12.62c2.59-3.11,6.53-4.66,11.84-4.66c5.3,0,9.27,1.56,11.89,4.66
					c2.62,3.11,3.93,7.31,3.93,12.62v35.54c0,5.24-1.31,9.42-3.93,12.57c-2.62,3.14-6.58,4.71-11.89,4.71
					c-5.31,0-9.25-1.57-11.84-4.71c-2.59-3.14-3.88-7.33-3.88-12.57V952.05z M771.34,987.98c0,3.14,0.67,5.58,2.01,7.31
					c1.34,1.73,3.39,2.6,6.14,2.6c2.82,0,4.88-0.87,6.19-2.6c1.31-1.73,1.96-4.17,1.96-7.31v-36.32c0-3.14-0.66-5.58-1.96-7.31
					c-1.31-1.73-3.37-2.6-6.19-2.6c-2.75,0-4.8,0.87-6.14,2.6c-1.34,1.74-2.01,4.17-2.01,7.31V987.98z"/>
				<path d="M809.37,1004.18h-6.88v-68.72h9.73l15.92,49.67v-49.67h6.78v68.72h-7.96l-17.59-55.56V1004.18z"/>
				<path d="M867.23,965.89v6.87h-16.8v24.44h20.63v6.97h-28.3v-68.72h28.3v6.97h-20.63v23.46H867.23z"/>
				<path d="M892.58,934.77c5.24,0,9.1,1.56,11.59,4.66c2.49,3.11,3.73,7.28,3.73,12.52v1.87h-7.27v-2.26
					c0-3.14-0.62-5.56-1.87-7.26c-1.24-1.7-3.24-2.55-5.99-2.55c-2.75,0-4.75,0.85-5.99,2.55c-1.25,1.7-1.87,4.09-1.87,7.17
					c0,2.55,0.57,4.78,1.72,6.68c1.14,1.9,2.57,3.65,4.27,5.25c1.7,1.6,3.55,3.17,5.55,4.71c2,1.54,3.85,3.22,5.55,5.06
					c1.7,1.83,3.13,3.91,4.27,6.23c1.15,2.32,1.72,5.09,1.72,8.29c0,5.24-1.26,9.41-3.78,12.52c-2.52,3.11-6.44,4.66-11.74,4.66
					c-5.31,0-9.2-1.55-11.69-4.66c-2.49-3.11-3.73-7.28-3.73-12.52v-3.93h7.17v4.32c0,3.14,0.65,5.56,1.96,7.26
					c1.31,1.7,3.34,2.55,6.09,2.55c2.75,0,4.78-0.85,6.09-2.55c1.31-1.7,1.96-4.12,1.96-7.26c0-2.55-0.57-4.76-1.72-6.63
					c-1.15-1.87-2.57-3.6-4.27-5.2c-1.7-1.6-3.54-3.17-5.5-4.71c-1.96-1.54-3.8-3.22-5.5-5.06c-1.7-1.83-3.13-3.91-4.27-6.23
					c-1.15-2.32-1.72-5.09-1.72-8.29c0-5.3,1.24-9.49,3.73-12.57C883.57,936.31,887.41,934.77,892.58,934.77z"/>
				<path d="M937.58,935.46v68.72h-7.66v-68.72H937.58z"/>
				<path d="M952.22,1004.18h-6.88v-68.72h9.73l15.92,49.67v-49.67h6.78v68.72h-7.96l-17.59-55.56V1004.18z"/>
				<path d="M1009.1,967.46v6.97h-15.82v29.75h-7.66v-68.72h27.31v6.97h-19.65v25.03H1009.1z"/>
				<path d="M1018.43,952.05c0-5.3,1.29-9.51,3.88-12.62c2.59-3.11,6.53-4.66,11.84-4.66c5.3,0,9.27,1.56,11.89,4.66
					c2.62,3.11,3.93,7.31,3.93,12.62v35.54c0,5.24-1.31,9.42-3.93,12.57c-2.62,3.14-6.58,4.71-11.89,4.71
					c-5.31,0-9.25-1.57-11.84-4.71c-2.59-3.14-3.88-7.33-3.88-12.57V952.05z M1026,987.98c0,3.14,0.67,5.58,2.01,7.31
					c1.34,1.73,3.39,2.6,6.14,2.6c2.82,0,4.88-0.87,6.19-2.6c1.31-1.73,1.96-4.17,1.96-7.31v-36.32c0-3.14-0.66-5.58-1.96-7.31
					c-1.31-1.73-3.37-2.6-6.19-2.6c-2.75,0-4.8,0.87-6.14,2.6c-1.34,1.74-2.01,4.17-2.01,7.31V987.98z"/>
				<path d="M1072.57,935.46c5.44,0,9.35,1.34,11.74,4.02c2.39,2.68,3.59,6.58,3.59,11.68v5.6c0,3.8-0.69,6.87-2.06,9.23
					c-1.38,2.36-3.54,3.99-6.48,4.91c3.14,0.92,5.37,2.6,6.68,5.06c1.31,2.45,1.96,5.55,1.96,9.28v10.7c0,1.51,0.06,2.96,0.2,4.37
					c0.13,1.41,0.52,2.7,1.18,3.88h-7.76c-0.46-0.98-0.79-2.04-0.98-3.19c-0.2-1.14-0.29-2.86-0.29-5.15v-10.8
					c0-3.86-0.87-6.53-2.6-8c-1.74-1.47-4.21-2.21-7.42-2.21h-5.4v29.35h-7.66v-68.72H1072.57z M1070.6,967.85
					c3.08,0,5.47-0.64,7.17-1.91c1.7-1.28,2.55-3.78,2.55-7.51v-6.58c0-3.14-0.61-5.5-1.82-7.07c-1.21-1.57-3.26-2.36-6.14-2.36
					h-7.47v25.43H1070.6z"/>
				<path d="M1121.3,1004.08h-7.37l-11.4-54.68v54.78h-6.68v-68.72h10.71l11.3,54.88l10.91-54.88h10.71v68.72h-7.27v-55.27
					L1121.3,1004.08z"/>
				<path d="M1155.09,990.33l-2.65,13.84h-7.07l13.17-68.72h11.1l13.17,68.72h-7.66l-2.65-13.84H1155.09z M1156.08,983.76h15.33
					l-7.76-39.66L1156.08,983.76z M1173.37,921.71l-9.04,10.11h-5.4l6.88-10.11H1173.37z"/>
				<path d="M1198.81,1004.18v-61.75h-12.67v-6.97h33.01v6.97h-12.67v61.75H1198.81z"/>
				<path d="M1232.12,935.46v68.72h-7.66v-68.72H1232.12z"/>
				<path d="M1254.81,934.77c5.3,0,9.22,1.57,11.74,4.71c2.52,3.14,3.78,7.33,3.78,12.57v6.18h-7.27v-6.58
					c0-3.14-0.64-5.58-1.92-7.31c-1.28-1.73-3.33-2.6-6.14-2.6c-2.75,0-4.78,0.87-6.09,2.6c-1.31,1.74-1.96,4.17-1.96,7.31v36.32
					c0,3.14,0.65,5.58,1.96,7.31c1.31,1.73,3.34,2.6,6.09,2.6c2.82,0,4.86-0.87,6.14-2.6c1.28-1.73,1.92-4.17,1.92-7.31v-8.93h7.27
					v8.54c0,5.24-1.26,9.42-3.78,12.57c-2.52,3.14-6.44,4.71-11.74,4.71c-5.24,0-9.12-1.57-11.64-4.71
					c-2.52-3.14-3.78-7.33-3.78-12.57v-35.54c0-2.62,0.31-4.99,0.93-7.12c0.62-2.12,1.57-3.94,2.85-5.45
					c1.28-1.5,2.88-2.67,4.81-3.48C1249.92,935.18,1252.19,934.77,1254.81,934.77z"/>
				<path d="M1285.07,990.33l-2.65,13.84h-7.07l13.17-68.72h11.1l13.17,68.72h-7.66l-2.65-13.84H1285.07z M1286.06,983.76h15.33
					l-7.76-39.66L1286.06,983.76z"/>
				<path d="M1333.21,934.77c5.24,0,9.1,1.56,11.59,4.66c2.49,3.11,3.73,7.28,3.73,12.52v1.87h-7.27v-2.26
					c0-3.14-0.62-5.56-1.87-7.26c-1.24-1.7-3.24-2.55-5.99-2.55c-2.75,0-4.75,0.85-5.99,2.55c-1.25,1.7-1.87,4.09-1.87,7.17
					c0,2.55,0.57,4.78,1.72,6.68c1.14,1.9,2.57,3.65,4.27,5.25c1.7,1.6,3.55,3.17,5.55,4.71c2,1.54,3.85,3.22,5.55,5.06
					c1.7,1.83,3.13,3.91,4.27,6.23c1.15,2.32,1.72,5.09,1.72,8.29c0,5.24-1.26,9.41-3.78,12.52c-2.52,3.11-6.44,4.66-11.74,4.66
					c-5.31,0-9.2-1.55-11.69-4.66c-2.49-3.11-3.73-7.28-3.73-12.52v-3.93h7.17v4.32c0,3.14,0.65,5.56,1.96,7.26
					c1.31,1.7,3.34,2.55,6.09,2.55c2.75,0,4.78-0.85,6.09-2.55c1.31-1.7,1.96-4.12,1.96-7.26c0-2.55-0.57-4.76-1.72-6.63
					c-1.15-1.87-2.57-3.6-4.27-5.2c-1.7-1.6-3.54-3.17-5.5-4.71c-1.96-1.54-3.8-3.22-5.5-5.06c-1.7-1.83-3.13-3.91-4.27-6.23
					c-1.15-2.32-1.72-5.09-1.72-8.29c0-5.3,1.24-9.49,3.73-12.57C1324.21,936.31,1328.04,934.77,1333.21,934.77z"/>
			</g>
			<path d="M626.28,693.94c12.35,0,23.13,1.36,32.37,4.09c9.23,2.73,16.66,5.6,22.28,8.63c5.62,3.03,9.03,5.05,10.24,6.06
				l-21.68,36.5c-1.61-1.21-4.34-2.98-8.21-5.3c-3.86-2.32-8.43-4.39-13.7-6.21c-5.27-1.82-10.77-2.73-16.49-2.73
				c-7.73,0-13.98,1.39-18.74,4.16c-4.77,2.78-7.15,6.89-7.15,12.35c0,3.74,1.28,7.1,3.84,10.07c2.56,2.98,6.47,5.81,11.74,8.48
				s11.97,5.58,20.1,8.71c7.43,2.73,14.4,5.96,20.93,9.69c6.52,3.74,12.27,8.15,17.24,13.25c4.97,5.1,8.91,10.98,11.82,17.65
				c2.91,6.66,4.37,14.24,4.37,22.72c0,10.1-2.06,18.86-6.17,26.28c-4.12,7.42-9.71,13.56-16.79,18.4
				c-7.08,4.85-15.11,8.46-24.09,10.83c-8.98,2.37-18.29,3.56-27.93,3.56c-13.65,0-25.87-1.57-36.66-4.69
				c-10.79-3.13-19.5-6.51-26.12-10.15c-6.62-3.63-10.59-6.06-11.89-7.27l22.43-38.02c1.2,0.91,3.54,2.37,7,4.39
				c3.46,2.02,7.7,4.12,12.72,6.29c5.02,2.17,10.36,4.01,16.03,5.53c5.67,1.51,11.27,2.27,16.79,2.27c9.23,0,16.16-1.79,20.78-5.38
				c4.62-3.58,6.93-8.3,6.93-14.16c0-4.34-1.46-8.23-4.37-11.66c-2.91-3.43-7.28-6.69-13.1-9.77c-5.82-3.08-13.1-6.34-21.83-9.77
				c-8.73-3.53-16.89-7.82-24.46-12.87c-7.58-5.05-13.73-11.36-18.44-18.93c-4.72-7.57-7.08-16.96-7.08-28.17
				c0-11.21,3.14-20.93,9.41-29.16c6.27-8.23,14.55-14.56,24.84-19.01C603.53,696.16,614.54,693.94,626.28,693.94z"/>
			<path d="M718.26,693.94h74.11c13.07,0,24.86,2.27,35.36,6.82c10.5,4.54,18.86,11.44,25.09,20.67c6.23,9.24,9.34,20.8,9.34,34.69
				c0,13.78-3.11,25.5-9.34,35.15c-6.23,9.65-14.59,17-25.09,22.05c-10.5,5.05-22.29,7.58-35.36,7.58h-27.95v75.19h-46.16V693.94z
				 M766,786.98h14.71c6.1,0,11.58-0.9,16.43-2.7c4.85-1.8,8.73-4.68,11.63-8.63c2.9-3.95,4.35-9.18,4.35-15.68
				c0-6.6-1.45-11.83-4.35-15.68c-2.9-3.85-6.78-6.63-11.63-8.33c-4.85-1.7-10.33-2.55-16.43-2.55H766V786.98z"/>
			<path d="M885.18,693.94h126.63v39.98h-81.86v41.05h81.11v38.76h-81.11v41.66h81.86v39.98H885.18V693.94z"/>
			<path d="M1145.59,851.8c9.31,0,17.78-1.33,25.41-3.98c7.64-2.65,13.33-5.25,17.07-7.81l19.42,37.4
				c-4.76,3.93-12.87,7.9-24.35,11.93c-11.48,4.02-25.11,6.04-40.89,6.04c-14.77,0-28.63-2.5-41.58-7.51s-24.35-12.05-34.22-21.13
				c-9.86-9.08-17.6-19.73-23.21-31.96s-8.42-25.5-8.42-39.83c0-14.33,2.78-27.66,8.35-39.98c5.56-12.32,13.28-23.05,23.14-32.18
				c9.86-9.13,21.29-16.22,34.29-21.28c13-5.06,26.88-7.58,41.65-7.58c15.78,0,29.41,2.01,40.89,6.04c11.48,4.03,19.6,8,24.35,11.93
				l-19.42,37.4c-3.74-2.65-9.43-5.28-17.07-7.88c-7.64-2.6-16.11-3.9-25.41-3.9c-10.32,0-19.32,1.55-27.01,4.64
				c-7.69,3.09-14.11,7.34-19.27,12.74c-5.16,5.4-9,11.49-11.53,18.26c-2.53,6.77-3.79,13.89-3.79,21.35
				c0,7.56,1.26,14.75,3.79,21.57c2.53,6.82,6.37,12.93,11.53,18.33c5.16,5.4,11.58,9.65,19.27,12.74
				C1126.27,850.26,1135.27,851.8,1145.59,851.8z"/>
			<path d="M1279.36,733.93h-48.84v-39.98h143.89v39.98h-48.69v161.47h-46.36V733.93z"/>
		</g>
	</g>
</g>
</svg>
